<?xml version="1.0" encoding="UTF-8" standalone="no"?>
<!-- Created with Inkscape (http://www.inkscape.org/) -->

<svg
   xmlns:dc="http://purl.org/dc/elements/1.1/"
   xmlns:cc="http://creativecommons.org/ns#"
   xmlns:rdf="http://www.w3.org/1999/02/22-rdf-syntax-ns#"
   xmlns:svg="http://www.w3.org/2000/svg"
   xmlns="http://www.w3.org/2000/svg"
   xmlns:sodipodi="http://sodipodi.sourceforge.net/DTD/sodipodi-0.dtd"
   xmlns:inkscape="http://www.inkscape.org/namespaces/inkscape"
   width="26.669689mm"
   height="56.339958mm"
   viewBox="0 0 26.669689 56.339958"
   version="1.1"
   id="svg8"
   inkscape:version="0.92.2 (5c3e80d, 2017-08-06)"
   sodipodi:docname="w5500_breadboard.svg">
  <defs
     id="defs2" />
  <sodipodi:namedview
     id="base"
     pagecolor="#ffffff"
     bordercolor="#666666"
     borderopacity="1.0"
     inkscape:pageopacity="0.0"
     inkscape:pageshadow="2"
     inkscape:zoom="2.8"
     inkscape:cx="18.216679"
     inkscape:cy="106.5885"
     inkscape:document-units="mm"
     inkscape:current-layer="layer1"
     showgrid="false"
     fit-margin-top="0"
     fit-margin-left="0"
     fit-margin-right="0"
     fit-margin-bottom="0"
     inkscape:window-width="1366"
     inkscape:window-height="746"
     inkscape:window-x="-8"
     inkscape:window-y="-8"
     inkscape:window-maximized="1" />
  <metadata
     id="metadata5">
    <rdf:RDF>
      <cc:Work
         rdf:about="">
        <dc:format>image/svg+xml</dc:format>
        <dc:type
           rdf:resource="http://purl.org/dc/dcmitype/StillImage" />
        <dc:title />
      </cc:Work>
    </rdf:RDF>
  </metadata>
  <g
     inkscape:label="Layer1"
     inkscape:groupmode="layer"
     id="layer1"
     transform="translate(-45.435985,-118.73125)">
    <path
       style="display:inline;fill:#000080;fill-opacity:1;stroke-width:0.99999994"
       d="M 171.72656,448.74805 V 650.34766 H 272.52539 V 448.74805 Z m 6.68946,4.80078 a 1.8897638,1.8897638 0 0 1 1.88867,1.88867 1.8897638,1.8897638 0 0 1 -1.88867,1.89062 1.8897638,1.8897638 0 0 1 -1.89063,-1.89062 1.8897638,1.8897638 0 0 1 1.89063,-1.88867 z m 9.5996,0 a 1.8897638,1.8897638 0 0 1 1.89063,1.88867 1.8897638,1.8897638 0 0 1 -1.89063,1.89062 1.8897638,1.8897638 0 0 1 -1.89062,-1.89062 1.8897638,1.8897638 0 0 1 1.89062,-1.88867 z m 9.59961,0 a 1.8897638,1.8897638 0 0 1 1.89063,1.88867 1.8897638,1.8897638 0 0 1 -1.89063,1.89062 1.8897638,1.8897638 0 0 1 -1.88867,-1.89062 1.8897638,1.8897638 0 0 1 1.88867,-1.88867 z m 9.59961,0 a 1.8897638,1.8897638 0 0 1 1.89063,1.88867 1.8897638,1.8897638 0 0 1 -1.89063,1.89062 1.8897638,1.8897638 0 0 1 -1.88867,-1.89062 1.8897638,1.8897638 0 0 1 1.88867,-1.88867 z m 9.60157,0 a 1.8897638,1.8897638 0 0 1 1.88867,1.88867 1.8897638,1.8897638 0 0 1 -1.88867,1.89062 1.8897638,1.8897638 0 0 1 -1.89063,-1.89062 1.8897638,1.8897638 0 0 1 1.89063,-1.88867 z m -38.40039,9.59961 a 1.8897638,1.8897638 0 0 1 1.88867,1.88867 1.8897638,1.8897638 0 0 1 -1.88867,1.89062 1.8897638,1.8897638 0 0 1 -1.89063,-1.89062 1.8897638,1.8897638 0 0 1 1.89063,-1.88867 z m 9.5996,0 a 1.8897638,1.8897638 0 0 1 1.89063,1.88867 1.8897638,1.8897638 0 0 1 -1.89063,1.89062 1.8897638,1.8897638 0 0 1 -1.89062,-1.89062 1.8897638,1.8897638 0 0 1 1.89062,-1.88867 z m 9.59961,0 a 1.8897638,1.8897638 0 0 1 1.89063,1.88867 1.8897638,1.8897638 0 0 1 -1.89063,1.89062 1.8897638,1.8897638 0 0 1 -1.88867,-1.89062 1.8897638,1.8897638 0 0 1 1.88867,-1.88867 z m 9.59961,0 a 1.8897638,1.8897638 0 0 1 1.89063,1.88867 1.8897638,1.8897638 0 0 1 -1.89063,1.89062 1.8897638,1.8897638 0 0 1 -1.88867,-1.89062 1.8897638,1.8897638 0 0 1 1.88867,-1.88867 z m 9.60157,0 a 1.8897638,1.8897638 0 0 1 1.88867,1.88867 1.8897638,1.8897638 0 0 1 -1.88867,1.89062 1.8897638,1.8897638 0 0 1 -1.89063,-1.89062 1.8897638,1.8897638 0 0 1 1.89063,-1.88867 z"
       transform="scale(0.26458333)"
       id="rect10"
       inkscape:connector-curvature="0"
       inkscape:label="base" />
    <rect
       style="fill:#808080;fill-opacity:1;stroke-width:0.26458332"
       id="rect3733"
       width="15"
       height="20"
       x="51.270821"
       y="155.07121"
       inkscape:label="rj45" />
    <rect
       style="fill:#000000;fill-opacity:1;stroke-width:0.26458332"
       id="rect3735"
       width="7"
       height="7"
       x="57.195679"
       y="139.31097"
       inkscape:label="W5500chip" />
    <rect
       style="fill:#999999;fill-opacity:1;stroke-width:0.26458332"
       id="rect3737"
       width="10"
       height="3"
       x="55.695679"
       y="132.6938"
       rx="1.5"
       ry="1.5"
       inkscape:label="crystal" />
    <rect
       style="fill:#ff0000;fill-opacity:1;stroke-width:0.26458332"
       id="rect3739"
       width="1.6"
       height="3.2"
       x="61.526604"
       y="120.06757"
       inkscape:label="led" />
    <g
       id="g3731"
       style="display:inline;fill:none;stroke:#9a916c;stroke-width:0.5;stroke-miterlimit:4;stroke-dasharray:none;stroke-opacity:1"
       transform="translate(-39.622235,-8.664e-4)"
       inkscape:label="pins">
      <circle
         r="0.5"
         cy="123.04208"
         cx="86.828056"
         id="path12"
         style="fill:none;fill-opacity:1;stroke:#9a916c;stroke-width:0.5;stroke-miterlimit:4;stroke-dasharray:none;stroke-opacity:1"
         inkscape:label="connector0pin" />
      <circle
         style="fill:none;fill-opacity:1;stroke:#9a916c;stroke-width:0.5;stroke-miterlimit:4;stroke-dasharray:none;stroke-opacity:1"
         id="circle3703"
         cx="89.368057"
         cy="123.04208"
         r="0.5"
         inkscape:label="connector1pin" />
      <circle
         r="0.5"
         cy="123.04208"
         cx="91.908058"
         id="circle3705"
         style="fill:none;fill-opacity:1;stroke:#9a916c;stroke-width:0.5;stroke-miterlimit:4;stroke-dasharray:none;stroke-opacity:1"
         inkscape:label="connector2pin" />
      <circle
         style="fill:none;fill-opacity:1;stroke:#9a916c;stroke-width:0.5;stroke-miterlimit:4;stroke-dasharray:none;stroke-opacity:1"
         id="circle3707"
         cx="94.448059"
         cy="123.04208"
         r="0.5"
         inkscape:label="connector3pin" />
      <circle
         r="0.5"
         cy="123.04208"
         cx="96.98806"
         id="circle3709"
         style="fill:none;fill-opacity:1;stroke:#9a916c;stroke-width:0.5;stroke-miterlimit:4;stroke-dasharray:none;stroke-opacity:1"
         inkscape:label="connector4pin" />
      <circle
         style="fill:none;fill-opacity:1;stroke:#9a916c;stroke-width:0.5;stroke-miterlimit:4;stroke-dasharray:none;stroke-opacity:1"
         id="circle3711"
         cx="86.828056"
         cy="120.50208"
         r="0.5"
         inkscape:label="connector9pin" />
      <circle
         r="0.5"
         cy="120.50208"
         cx="89.368057"
         id="circle3713"
         style="fill:none;fill-opacity:1;stroke:#9a916c;stroke-width:0.5;stroke-miterlimit:4;stroke-dasharray:none;stroke-opacity:1"
         inkscape:label="connector8pin" />
      <circle
         style="fill:none;fill-opacity:1;stroke:#9a916c;stroke-width:0.5;stroke-miterlimit:4;stroke-dasharray:none;stroke-opacity:1"
         id="circle3715"
         cx="91.908058"
         cy="120.50208"
         r="0.5"
         inkscape:label="connector7pin" />
      <circle
         r="0.5"
         cy="120.50208"
         cx="94.448059"
         id="circle3717"
         style="fill:none;fill-opacity:1;stroke:#9a916c;stroke-width:0.5;stroke-miterlimit:4;stroke-dasharray:none;stroke-opacity:1"
         inkscape:label="connector6pin" />
      <circle
         style="fill:none;fill-opacity:1;stroke:#9a916c;stroke-width:0.5;stroke-miterlimit:4;stroke-dasharray:none;stroke-opacity:1"
         id="circle3719"
         cx="96.98806"
         cy="120.50208"
         r="0.5"
         inkscape:label="connector5pin" />
      <g
         aria-label="SCLK"
         style="font-style:normal;font-variant:normal;font-weight:normal;font-stretch:normal;font-size:0.98777777px;line-height:125%;font-family:'Droid Sans';-inkscape-font-specification:'Droid Sans';text-align:start;letter-spacing:0px;word-spacing:0px;writing-mode:lr-tb;text-anchor:start;fill:#ffffff;fill-opacity:1;stroke:none;stroke-width:0.26458332px;stroke-linecap:butt;stroke-linejoin:miter;stroke-opacity:1"
         id="text4612">
        <path
           d="m 96.530937,124.57229 q 0,0.0468 -0.01688,0.0839 -0.0164,0.0367 -0.04727,0.0622 -0.03087,0.0256 -0.07524,0.0391 -0.04437,0.013 -0.09984,0.013 -0.05354,0 -0.100321,-0.009 -0.0463,-0.008 -0.07765,-0.0246 v -0.0858 q 0.0164,0.008 0.03714,0.0154 0.02122,0.007 0.04437,0.013 0.02315,0.006 0.04775,0.01 0.0246,0.003 0.04871,0.003 0.07717,0 0.113826,-0.0289 0.03714,-0.0289 0.03714,-0.083 0,-0.026 -0.0072,-0.0453 -0.0068,-0.0193 -0.0246,-0.0352 -0.01736,-0.0164 -0.04678,-0.0314 -0.02942,-0.0154 -0.07428,-0.0333 -0.04293,-0.0169 -0.07476,-0.0366 -0.03135,-0.0203 -0.05209,-0.0453 -0.02026,-0.0251 -0.03038,-0.0569 -0.0096,-0.0318 -0.0096,-0.0724 0,-0.0424 0.01543,-0.0757 0.01543,-0.0333 0.04341,-0.0559 0.02797,-0.0232 0.06656,-0.0352 0.03907,-0.0121 0.08585,-0.0121 0.05739,0 0.103215,0.0111 0.04582,0.0106 0.08151,0.0275 l -0.03231,0.0752 q -0.03135,-0.014 -0.07138,-0.0241 -0.03955,-0.0106 -0.08199,-0.0106 -0.05884,0 -0.09116,0.0275 -0.03231,0.027 -0.03231,0.0733 0,0.0275 0.0072,0.0478 0.0072,0.0198 0.02412,0.0362 0.01688,0.0159 0.04437,0.0304 0.02797,0.014 0.06849,0.0299 0.04389,0.0174 0.07669,0.0357 0.03328,0.0183 0.05547,0.0415 0.02219,0.0232 0.03328,0.0535 0.01157,0.0304 0.01157,0.0719 z"
           style="font-style:normal;font-variant:normal;font-weight:normal;font-stretch:normal;font-size:0.98777777px;font-family:'Droid Sans';-inkscape-font-specification:'Droid Sans';fill:#ffffff;stroke-width:0.26458332px"
           id="path4664"
           inkscape:connector-curvature="0" />
        <path
           d="m 96.959232,124.1247 q -0.05161,0 -0.09357,0.0198 -0.04196,0.0193 -0.07187,0.0559 -0.02942,0.0367 -0.04582,0.0892 -0.01592,0.0526 -0.01592,0.11865 0,0.068 0.01399,0.12106 0.01447,0.0526 0.04293,0.0888 0.02846,0.0362 0.0709,0.055 0.04244,0.0188 0.09936,0.0188 0.04293,0 0.08151,-0.008 0.03858,-0.009 0.0762,-0.0198 v 0.0781 q -0.01881,0.007 -0.03762,0.013 -0.01881,0.005 -0.03955,0.009 -0.02026,0.003 -0.04389,0.005 -0.02315,0.002 -0.05161,0.002 -0.0791,0 -0.136977,-0.026 -0.05788,-0.026 -0.09598,-0.0738 -0.03762,-0.0478 -0.05595,-0.11479 -0.01833,-0.067 -0.01833,-0.14855 0,-0.0801 0.02074,-0.14663 0.02122,-0.0666 0.06174,-0.11431 0.041,-0.0477 0.101286,-0.0743 0.06029,-0.0265 0.138424,-0.0265 0.05209,0 0.09936,0.0106 0.04727,0.0106 0.08537,0.0309 l -0.03762,0.0752 q -0.03038,-0.0154 -0.06608,-0.0265 -0.03569,-0.0111 -0.08103,-0.0111 z"
           style="font-style:normal;font-variant:normal;font-weight:normal;font-stretch:normal;font-size:0.98777777px;font-family:'Droid Sans';-inkscape-font-specification:'Droid Sans';fill:#ffffff;stroke-width:0.26458332px"
           id="path4666"
           inkscape:connector-curvature="0" />
        <path
           d="m 97.268877,124.76087 v -0.70514 h 0.08971 v 0.62508 h 0.276366 v 0.0801 z"
           style="font-style:normal;font-variant:normal;font-weight:normal;font-stretch:normal;font-size:0.98777777px;font-family:'Droid Sans';-inkscape-font-specification:'Droid Sans';fill:#ffffff;stroke-width:0.26458332px"
           id="path4668"
           inkscape:connector-curvature="0" />
        <path
           d="m 98.231092,124.76087 h -0.101768 l -0.217523,-0.33665 -0.06704,0.055 v 0.28167 h -0.08971 v -0.70514 h 0.08971 v 0.35257 l 0.05836,-0.081 0.218006,-0.27154 h 0.100803 l -0.250803,0.30723 z"
           style="font-style:normal;font-variant:normal;font-weight:normal;font-stretch:normal;font-size:0.98777777px;font-family:'Droid Sans';-inkscape-font-specification:'Droid Sans';fill:#ffffff;stroke-width:0.26458332px"
           id="path4670"
           inkscape:connector-curvature="0" />
      </g>
      <g
         aria-label="MOSI"
         style="font-style:normal;font-variant:normal;font-weight:normal;font-stretch:normal;font-size:0.98777777px;line-height:125%;font-family:'Droid Sans';-inkscape-font-specification:'Droid Sans';text-align:start;letter-spacing:0px;word-spacing:0px;writing-mode:lr-tb;text-anchor:start;fill:#ffffff;fill-opacity:1;stroke:none;stroke-width:0.26458332px;stroke-linecap:butt;stroke-linejoin:miter;stroke-opacity:1"
         id="text4626">
        <path
           d="m 91.108733,124.76184 -0.213665,-0.61736 h -0.0039 q 0.0029,0.0357 0.0048,0.0709 0.0019,0.0304 0.0029,0.0641 0.0014,0.0333 0.0014,0.0608 v 0.42154 h -0.08296 v -0.70514 h 0.133118 l 0.198714,0.57492 h 0.0029 l 0.199678,-0.57492 h 0.133119 v 0.70514 h -0.08971 v -0.42781 q 0,-0.0251 9.65e-4,-0.0574 9.65e-4,-0.0323 0.0024,-0.0617 0.0019,-0.0343 0.0034,-0.0695 h -0.0039 l -0.215594,0.6164 z"
           style="font-style:normal;font-variant:normal;font-weight:normal;font-stretch:normal;font-size:0.98777777px;font-family:'Droid Sans';-inkscape-font-specification:'Droid Sans';fill:#ffffff;stroke-width:0.26458332px"
           id="path4673"
           inkscape:connector-curvature="0" />
        <path
           d="m 92.253745,124.40831 q 0,0.0815 -0.01977,0.14855 -0.01929,0.067 -0.05788,0.11479 -0.03858,0.0477 -0.09598,0.0738 -0.05691,0.026 -0.131671,0.026 -0.07862,0 -0.136495,-0.026 -0.05739,-0.026 -0.0955,-0.0738 -0.03762,-0.0477 -0.05595,-0.11479 -0.01833,-0.0675 -0.01833,-0.14952 0,-0.082 0.01833,-0.14855 0.01833,-0.067 0.05643,-0.11431 0.0381,-0.0473 0.09598,-0.0728 0.05788,-0.026 0.136494,-0.026 0.07476,0 0.13119,0.026 0.05691,0.0256 0.0955,0.0733 0.03859,0.0473 0.05788,0.11431 0.01977,0.0666 0.01977,0.14904 z m -0.516558,0 q 0,0.0661 0.01254,0.11913 0.01254,0.0526 0.0381,0.0897 0.02604,0.0367 0.0656,0.0564 0.04003,0.0193 0.09502,0.0193 0.05498,0 0.09453,-0.0193 0.04003,-0.0198 0.0656,-0.0564 0.02604,-0.0371 0.0381,-0.0897 0.01206,-0.0531 0.01206,-0.11913 0,-0.0666 -0.01206,-0.11914 -0.01206,-0.0526 -0.03762,-0.0887 -0.02556,-0.0367 -0.06511,-0.0559 -0.03955,-0.0198 -0.09453,-0.0198 -0.05498,0 -0.09502,0.0198 -0.04003,0.0193 -0.06608,0.0559 -0.02604,0.0362 -0.03858,0.0887 -0.01254,0.0526 -0.01254,0.11914 z"
           style="font-style:normal;font-variant:normal;font-weight:normal;font-stretch:normal;font-size:0.98777777px;font-family:'Droid Sans';-inkscape-font-specification:'Droid Sans';fill:#ffffff;stroke-width:0.26458332px"
           id="path4675"
           inkscape:connector-curvature="0" />
        <path
           d="m 92.782361,124.57326 q 0,0.0468 -0.01688,0.0839 -0.0164,0.0367 -0.04727,0.0622 -0.03087,0.0256 -0.07524,0.0391 -0.04437,0.013 -0.09984,0.013 -0.05354,0 -0.100321,-0.009 -0.0463,-0.008 -0.07765,-0.0246 v -0.0858 q 0.0164,0.008 0.03714,0.0154 0.02122,0.007 0.04437,0.013 0.02315,0.006 0.04775,0.01 0.0246,0.003 0.04871,0.003 0.07717,0 0.113826,-0.0289 0.03714,-0.0289 0.03714,-0.083 0,-0.026 -0.0072,-0.0453 -0.0068,-0.0193 -0.0246,-0.0352 -0.01736,-0.0164 -0.04678,-0.0314 -0.02942,-0.0154 -0.07428,-0.0333 -0.04293,-0.0169 -0.07476,-0.0367 -0.03135,-0.0203 -0.05209,-0.0453 -0.02026,-0.0251 -0.03038,-0.0569 -0.0096,-0.0318 -0.0096,-0.0724 0,-0.0425 0.01543,-0.0757 0.01543,-0.0333 0.04341,-0.0559 0.02797,-0.0232 0.06656,-0.0352 0.03907,-0.0121 0.08585,-0.0121 0.05739,0 0.103215,0.0111 0.04582,0.0106 0.08151,0.0275 l -0.03231,0.0752 q -0.03135,-0.014 -0.07138,-0.0241 -0.03955,-0.0106 -0.08199,-0.0106 -0.05884,0 -0.09116,0.0275 -0.03231,0.027 -0.03231,0.0733 0,0.0275 0.0072,0.0477 0.0072,0.0198 0.02412,0.0362 0.01688,0.0159 0.04437,0.0304 0.02797,0.014 0.06849,0.0299 0.04389,0.0174 0.07669,0.0357 0.03328,0.0183 0.05547,0.0415 0.02219,0.0232 0.03328,0.0535 0.01158,0.0304 0.01158,0.0719 z"
           style="font-style:normal;font-variant:normal;font-weight:normal;font-stretch:normal;font-size:0.98777777px;font-family:'Droid Sans';-inkscape-font-specification:'Droid Sans';fill:#ffffff;stroke-width:0.26458332px"
           id="path4677"
           inkscape:connector-curvature="0" />
        <path
           d="M 93.123356,124.76184 H 92.86773 v -0.0492 l 0.08296,-0.0198 v -0.5672 l -0.08296,-0.0198 v -0.0492 h 0.255626 v 0.0492 l -0.08296,0.0198 v 0.5672 l 0.08296,0.0198 z"
           style="font-style:normal;font-variant:normal;font-weight:normal;font-stretch:normal;font-size:0.98777777px;font-family:'Droid Sans';-inkscape-font-specification:'Droid Sans';fill:#ffffff;stroke-width:0.26458332px"
           id="path4679"
           inkscape:connector-curvature="0" />
      </g>
      <g
         aria-label="MISO"
         style="font-style:normal;font-variant:normal;font-weight:normal;font-stretch:normal;font-size:0.98777777px;line-height:125%;font-family:'Droid Sans';-inkscape-font-specification:'Droid Sans, Normal';text-align:start;letter-spacing:0px;word-spacing:0px;writing-mode:lr-tb;text-anchor:start;fill:#ffffff;fill-opacity:1;stroke:none;stroke-width:0.26458332px;stroke-linecap:butt;stroke-linejoin:miter;stroke-opacity:1"
         id="text4630">
        <path
           d="m 88.558372,124.76184 -0.213665,-0.61736 h -0.0039 q 0.0029,0.0357 0.0048,0.0709 0.0019,0.0304 0.0029,0.0641 0.0014,0.0333 0.0014,0.0608 v 0.42154 h -0.08296 v -0.70514 h 0.133119 l 0.198713,0.57492 h 0.0029 l 0.199677,-0.57492 h 0.133119 v 0.70514 h -0.08971 v -0.42781 q 0,-0.0251 9.64e-4,-0.0574 9.65e-4,-0.0323 0.0024,-0.0617 0.0019,-0.0343 0.0034,-0.0695 h -0.0039 l -0.215595,0.6164 z"
           style="font-size:0.98777777px;fill:#ffffff;stroke-width:0.26458332px"
           id="path4682"
           inkscape:connector-curvature="0" />
        <path
           d="m 89.326697,124.76184 h -0.255626 v -0.0492 l 0.08296,-0.0198 v -0.5672 l -0.08296,-0.0198 v -0.0492 h 0.255626 v 0.0492 l -0.08296,0.0198 v 0.5672 l 0.08296,0.0198 z"
           style="font-size:0.98777777px;fill:#ffffff;stroke-width:0.26458332px"
           id="path4684"
           inkscape:connector-curvature="0" />
        <path
           d="m 89.834573,124.57326 q 0,0.0468 -0.01688,0.0839 -0.0164,0.0367 -0.04727,0.0622 -0.03087,0.0256 -0.07524,0.0391 -0.04437,0.013 -0.09984,0.013 -0.05354,0 -0.100321,-0.009 -0.0463,-0.008 -0.07765,-0.0246 v -0.0858 q 0.0164,0.008 0.03714,0.0154 0.02122,0.007 0.04437,0.013 0.02315,0.006 0.04775,0.01 0.0246,0.003 0.04871,0.003 0.07717,0 0.113826,-0.0289 0.03714,-0.0289 0.03714,-0.083 0,-0.026 -0.0072,-0.0453 -0.0068,-0.0193 -0.0246,-0.0352 -0.01736,-0.0164 -0.04678,-0.0314 -0.02942,-0.0154 -0.07428,-0.0333 -0.04293,-0.0169 -0.07476,-0.0367 -0.03135,-0.0203 -0.05209,-0.0453 -0.02026,-0.0251 -0.03039,-0.0569 -0.0096,-0.0318 -0.0096,-0.0724 0,-0.0425 0.01543,-0.0757 0.01543,-0.0333 0.04341,-0.0559 0.02797,-0.0232 0.06656,-0.0352 0.03907,-0.0121 0.08585,-0.0121 0.05739,0 0.103215,0.0111 0.04582,0.0106 0.08151,0.0275 l -0.03231,0.0752 q -0.03135,-0.014 -0.07138,-0.0241 -0.03955,-0.0106 -0.08199,-0.0106 -0.05884,0 -0.09116,0.0275 -0.03231,0.027 -0.03231,0.0733 0,0.0275 0.0072,0.0477 0.0072,0.0198 0.02411,0.0362 0.01688,0.0159 0.04437,0.0304 0.02797,0.014 0.06849,0.0299 0.04389,0.0174 0.07669,0.0357 0.03328,0.0183 0.05547,0.0415 0.02219,0.0232 0.03328,0.0535 0.01158,0.0304 0.01158,0.0719 z"
           style="font-size:0.98777777px;fill:#ffffff;stroke-width:0.26458332px"
           id="path4686"
           inkscape:connector-curvature="0" />
        <path
           d="m 90.552255,124.40831 q 0,0.0815 -0.01977,0.14855 -0.01929,0.067 -0.05788,0.11479 -0.03858,0.0477 -0.09598,0.0738 -0.05691,0.026 -0.131671,0.026 -0.07862,0 -0.136495,-0.026 -0.05739,-0.026 -0.0955,-0.0738 -0.03762,-0.0477 -0.05595,-0.11479 -0.01833,-0.0675 -0.01833,-0.14952 0,-0.082 0.01833,-0.14855 0.01833,-0.067 0.05643,-0.11431 0.0381,-0.0473 0.09598,-0.0728 0.05788,-0.026 0.136494,-0.026 0.07476,0 0.13119,0.026 0.05691,0.0256 0.0955,0.0733 0.03858,0.0473 0.05788,0.11431 0.01977,0.0666 0.01977,0.14904 z m -0.516558,0 q 0,0.0661 0.01254,0.11913 0.01254,0.0526 0.0381,0.0897 0.02604,0.0367 0.06559,0.0564 0.04003,0.0193 0.09502,0.0193 0.05498,0 0.09453,-0.0193 0.04003,-0.0198 0.0656,-0.0564 0.02605,-0.0371 0.0381,-0.0897 0.01206,-0.0531 0.01206,-0.11913 0,-0.0666 -0.01206,-0.11914 -0.01206,-0.0526 -0.03762,-0.0887 -0.02556,-0.0367 -0.06511,-0.0559 -0.03955,-0.0198 -0.09453,-0.0198 -0.05498,0 -0.09502,0.0198 -0.04003,0.0193 -0.06608,0.0559 -0.02604,0.0362 -0.03858,0.0887 -0.01254,0.0526 -0.01254,0.11914 z"
           style="font-size:0.98777777px;fill:#ffffff;stroke-width:0.26458332px"
           id="path4688"
           inkscape:connector-curvature="0" />
      </g>
      <g
         aria-label="SCS"
         style="font-style:normal;font-variant:normal;font-weight:normal;font-stretch:normal;font-size:0.98777777px;line-height:125%;font-family:'Droid Sans';-inkscape-font-specification:'Droid Sans, Normal';text-align:start;letter-spacing:0px;word-spacing:0px;writing-mode:lr-tb;text-anchor:start;fill:#ffffff;fill-opacity:1;stroke:none;stroke-width:0.26458332px;stroke-linecap:butt;stroke-linejoin:miter;stroke-opacity:1"
         id="text4634">
        <path
           d="m 94.058434,124.57229 q 0,0.0468 -0.01688,0.0839 -0.0164,0.0367 -0.04727,0.0622 -0.03087,0.0256 -0.07524,0.0391 -0.04437,0.013 -0.09984,0.013 -0.05354,0 -0.100321,-0.009 -0.0463,-0.008 -0.07765,-0.0246 v -0.0858 q 0.0164,0.008 0.03714,0.0154 0.02122,0.007 0.04437,0.013 0.02315,0.006 0.04775,0.01 0.0246,0.003 0.04871,0.003 0.07717,0 0.113826,-0.0289 0.03714,-0.0289 0.03714,-0.083 0,-0.026 -0.0072,-0.0453 -0.0068,-0.0193 -0.0246,-0.0352 -0.01736,-0.0164 -0.04678,-0.0314 -0.02942,-0.0154 -0.07428,-0.0333 -0.04293,-0.0169 -0.07476,-0.0366 -0.03135,-0.0203 -0.05209,-0.0453 -0.02026,-0.0251 -0.03039,-0.0569 -0.0096,-0.0318 -0.0096,-0.0724 0,-0.0424 0.01543,-0.0757 0.01543,-0.0333 0.04341,-0.0559 0.02797,-0.0232 0.06656,-0.0352 0.03907,-0.0121 0.08585,-0.0121 0.05739,0 0.103215,0.0111 0.04582,0.0106 0.08151,0.0275 l -0.03231,0.0752 q -0.03135,-0.014 -0.07138,-0.0241 -0.03955,-0.0106 -0.08199,-0.0106 -0.05884,0 -0.09116,0.0275 -0.03231,0.027 -0.03231,0.0733 0,0.0275 0.0072,0.0478 0.0072,0.0198 0.02411,0.0362 0.01688,0.0159 0.04437,0.0304 0.02797,0.014 0.06849,0.0299 0.04389,0.0174 0.07669,0.0357 0.03328,0.0183 0.05547,0.0415 0.02219,0.0232 0.03328,0.0535 0.01158,0.0304 0.01158,0.0719 z"
           style="font-size:0.98777777px;fill:#ffffff;stroke-width:0.26458332px"
           id="path4691"
           inkscape:connector-curvature="0" />
        <path
           d="m 94.486728,124.1247 q -0.05161,0 -0.09357,0.0198 -0.04196,0.0193 -0.07186,0.0559 -0.02942,0.0367 -0.04582,0.0892 -0.01592,0.0526 -0.01592,0.11865 0,0.068 0.01399,0.12106 0.01447,0.0526 0.04293,0.0888 0.02846,0.0362 0.0709,0.055 0.04244,0.0188 0.09936,0.0188 0.04293,0 0.08151,-0.008 0.03858,-0.009 0.0762,-0.0198 v 0.0781 q -0.01881,0.007 -0.03762,0.013 -0.01881,0.005 -0.03955,0.009 -0.02026,0.003 -0.04389,0.005 -0.02315,0.002 -0.05161,0.002 -0.0791,0 -0.136977,-0.026 -0.05788,-0.026 -0.09598,-0.0738 -0.03762,-0.0478 -0.05595,-0.11479 -0.01833,-0.067 -0.01833,-0.14855 0,-0.0801 0.02074,-0.14663 0.02122,-0.0666 0.06174,-0.11431 0.041,-0.0477 0.101286,-0.0743 0.06029,-0.0265 0.138424,-0.0265 0.05209,0 0.09936,0.0106 0.04727,0.0106 0.08537,0.0309 l -0.03762,0.0752 q -0.03039,-0.0154 -0.06608,-0.0265 -0.03569,-0.0111 -0.08103,-0.0111 z"
           style="font-size:0.98777777px;fill:#ffffff;stroke-width:0.26458332px"
           id="path4693"
           inkscape:connector-curvature="0" />
        <path
           d="m 95.167754,124.57229 q 0,0.0468 -0.01688,0.0839 -0.0164,0.0367 -0.04727,0.0622 -0.03087,0.0256 -0.07524,0.0391 -0.04437,0.013 -0.09984,0.013 -0.05354,0 -0.100321,-0.009 -0.0463,-0.008 -0.07765,-0.0246 v -0.0858 q 0.0164,0.008 0.03714,0.0154 0.02122,0.007 0.04437,0.013 0.02315,0.006 0.04775,0.01 0.0246,0.003 0.04871,0.003 0.07717,0 0.113826,-0.0289 0.03714,-0.0289 0.03714,-0.083 0,-0.026 -0.0072,-0.0453 -0.0068,-0.0193 -0.0246,-0.0352 -0.01736,-0.0164 -0.04678,-0.0314 -0.02942,-0.0154 -0.07428,-0.0333 -0.04293,-0.0169 -0.07476,-0.0366 -0.03135,-0.0203 -0.05209,-0.0453 -0.02026,-0.0251 -0.03039,-0.0569 -0.0096,-0.0318 -0.0096,-0.0724 0,-0.0424 0.01543,-0.0757 0.01543,-0.0333 0.04341,-0.0559 0.02797,-0.0232 0.06656,-0.0352 0.03907,-0.0121 0.08585,-0.0121 0.05739,0 0.103215,0.0111 0.04582,0.0106 0.08151,0.0275 l -0.03231,0.0752 q -0.03135,-0.014 -0.07138,-0.0241 -0.03955,-0.0106 -0.08199,-0.0106 -0.05884,0 -0.09116,0.0275 -0.03231,0.027 -0.03231,0.0733 0,0.0275 0.0072,0.0478 0.0072,0.0198 0.02412,0.0362 0.01688,0.0159 0.04437,0.0304 0.02797,0.014 0.06849,0.0299 0.04389,0.0174 0.07669,0.0357 0.03328,0.0183 0.05547,0.0415 0.02219,0.0232 0.03328,0.0535 0.01158,0.0304 0.01158,0.0719 z"
           style="font-size:0.98777777px;fill:#ffffff;stroke-width:0.26458332px"
           id="path4695"
           inkscape:connector-curvature="0" />
      </g>
      <g
         aria-label="3.3V"
         style="font-style:normal;font-variant:normal;font-weight:normal;font-stretch:normal;font-size:0.98777777px;line-height:125%;font-family:'Droid Sans';-inkscape-font-specification:'Droid Sans, Normal';text-align:start;letter-spacing:0px;word-spacing:0px;writing-mode:lr-tb;text-anchor:start;fill:#ffffff;fill-opacity:1;stroke:none;stroke-width:0.26458332px;stroke-linecap:butt;stroke-linejoin:miter;stroke-opacity:1"
         id="text4638">
        <path
           d="m 86.330187,124.22068 q 0,0.0352 -0.01109,0.0641 -0.01109,0.0289 -0.03135,0.0502 -0.01978,0.0212 -0.04775,0.0352 -0.02797,0.0135 -0.06222,0.0193 v 0.003 q 0.08537,0.0106 0.129742,0.0545 0.04437,0.0434 0.04437,0.11334 0,0.0463 -0.01592,0.0849 -0.01543,0.0386 -0.04727,0.0666 -0.03183,0.028 -0.08055,0.0434 -0.04871,0.0154 -0.115273,0.0154 -0.05257,0 -0.09936,-0.008 -0.0463,-0.008 -0.0873,-0.0299 v -0.082 q 0.04196,0.0222 0.09068,0.0343 0.0492,0.0121 0.09405,0.0121 0.04437,0 0.07669,-0.01 0.03231,-0.01 0.05306,-0.0275 0.02122,-0.0178 0.03087,-0.0439 0.01013,-0.026 0.01013,-0.0584 0,-0.0328 -0.01302,-0.0559 -0.01254,-0.0236 -0.03617,-0.0386 -0.02363,-0.0154 -0.05788,-0.0227 -0.03376,-0.007 -0.07669,-0.007 h -0.06415 v -0.0728 h 0.06415 q 0.03907,0 0.06945,-0.01 0.03039,-0.01 0.05064,-0.0275 0.02074,-0.0178 0.03135,-0.0424 0.01061,-0.0246 0.01061,-0.054 0,-0.0251 -0.0087,-0.0449 -0.0087,-0.0198 -0.0246,-0.0333 -0.01592,-0.014 -0.0381,-0.0212 -0.02219,-0.007 -0.0492,-0.007 -0.05161,0 -0.09116,0.0164 -0.03907,0.0159 -0.07476,0.042 l -0.04437,-0.0603 q 0.01833,-0.0149 0.04051,-0.028 0.02267,-0.013 0.0492,-0.0227 0.02653,-0.0101 0.05643,-0.0159 0.03039,-0.006 0.06415,-0.006 0.05209,0 0.09116,0.013 0.03955,0.013 0.06608,0.0367 0.02653,0.0232 0.04003,0.0555 0.0135,0.0318 0.0135,0.0699 z"
           style="font-size:0.98777777px;fill:#ffffff;stroke-width:0.26458332px"
           id="path4698"
           inkscape:connector-curvature="0" />
        <path
           d="m 86.481634,124.70734 q 0,-0.0183 0.0048,-0.0309 0.0048,-0.013 0.01302,-0.0207 0.0082,-0.008 0.01929,-0.0116 0.01109,-0.004 0.02411,-0.004 0.01254,0 0.02363,0.004 0.01158,0.003 0.01978,0.0116 0.0082,0.008 0.01302,0.0207 0.0048,0.0125 0.0048,0.0309 0,0.0178 -0.0048,0.0309 -0.0048,0.0125 -0.01302,0.0207 -0.0082,0.008 -0.01978,0.0121 -0.01109,0.004 -0.02363,0.004 -0.01302,0 -0.02411,-0.004 -0.01109,-0.004 -0.01929,-0.0121 -0.0082,-0.008 -0.01302,-0.0207 -0.0048,-0.013 -0.0048,-0.0309 z"
           style="font-size:0.98777777px;fill:#ffffff;stroke-width:0.26458332px"
           id="path4700"
           inkscape:connector-curvature="0" />
        <path
           d="m 87.138544,124.22068 q 0,0.0352 -0.01109,0.0641 -0.01109,0.0289 -0.03135,0.0502 -0.01978,0.0212 -0.04775,0.0352 -0.02797,0.0135 -0.06222,0.0193 v 0.003 q 0.08537,0.0106 0.129743,0.0545 0.04437,0.0434 0.04437,0.11334 0,0.0463 -0.01592,0.0849 -0.01543,0.0386 -0.04727,0.0666 -0.03183,0.028 -0.08055,0.0434 -0.04871,0.0154 -0.115273,0.0154 -0.05257,0 -0.09936,-0.008 -0.0463,-0.008 -0.0873,-0.0299 v -0.082 q 0.04196,0.0222 0.09068,0.0343 0.0492,0.0121 0.09405,0.0121 0.04437,0 0.07669,-0.01 0.03231,-0.01 0.05305,-0.0275 0.02122,-0.0178 0.03087,-0.0439 0.01013,-0.026 0.01013,-0.0584 0,-0.0328 -0.01302,-0.0559 -0.01254,-0.0236 -0.03617,-0.0386 -0.02363,-0.0154 -0.05788,-0.0227 -0.03376,-0.007 -0.07669,-0.007 h -0.06415 v -0.0728 h 0.06415 q 0.03907,0 0.06945,-0.01 0.03038,-0.01 0.05064,-0.0275 0.02074,-0.0178 0.03135,-0.0424 0.01061,-0.0246 0.01061,-0.054 0,-0.0251 -0.0087,-0.0449 -0.0087,-0.0198 -0.0246,-0.0333 -0.01592,-0.014 -0.0381,-0.0212 -0.02219,-0.007 -0.0492,-0.007 -0.05161,0 -0.09116,0.0164 -0.03907,0.0159 -0.07476,0.042 l -0.04437,-0.0603 q 0.01833,-0.0149 0.04051,-0.028 0.02267,-0.013 0.0492,-0.0227 0.02653,-0.0101 0.05643,-0.0159 0.03039,-0.006 0.06415,-0.006 0.05209,0 0.09116,0.013 0.03955,0.013 0.06608,0.0367 0.02653,0.0232 0.04003,0.0555 0.0135,0.0318 0.0135,0.0699 z"
           style="font-size:0.98777777px;fill:#ffffff;stroke-width:0.26458332px"
           id="path4702"
           inkscape:connector-curvature="0" />
        <path
           d="m 87.684523,124.05573 h 0.0955 l -0.235851,0.70514 h -0.09019 l -0.234886,-0.70514 h 0.09501 l 0.142283,0.4471 q 0.01399,0.0439 0.02412,0.0849 0.01013,0.0405 0.01833,0.0762 0.0072,-0.0357 0.01833,-0.0762 0.01109,-0.041 0.02604,-0.0878 z"
           style="font-size:0.98777777px;fill:#ffffff;stroke-width:0.26458332px"
           id="path4704"
           inkscape:connector-curvature="0" />
      </g>
      <g
         aria-label="NC"
         style="font-style:normal;font-variant:normal;font-weight:normal;font-stretch:normal;font-size:0.98777777px;line-height:125%;font-family:'Droid Sans';-inkscape-font-specification:'Droid Sans';text-align:center;letter-spacing:0px;word-spacing:0px;writing-mode:lr-tb;text-anchor:middle;fill:#ffffff;fill-opacity:1;stroke:none;stroke-width:0.26458332px;stroke-linecap:butt;stroke-linejoin:miter;stroke-opacity:1"
         id="text4646">
        <path
           d="m 96.888365,119.56088 h -0.103698 l -0.346783,-0.5836 h -0.0039 q 0.0029,0.0371 0.0048,0.0738 0.0019,0.0314 0.0029,0.0656 0.0014,0.0343 0.0014,0.0617 v 0.38247 h -0.08296 v -0.70514 h 0.102732 l 0.345337,0.58071 h 0.0034 q -0.0014,-0.0367 -0.0034,-0.0724 -4.82e-4,-0.0154 -0.0014,-0.0313 -4.82e-4,-0.0164 -0.0014,-0.0323 -4.82e-4,-0.0164 -9.65e-4,-0.0314 0,-0.0149 0,-0.0275 v -0.38585 h 0.08392 z"
           style="font-style:normal;font-variant:normal;font-weight:normal;font-stretch:normal;font-size:0.98777777px;font-family:'Droid Sans';-inkscape-font-specification:'Droid Sans';text-align:center;text-anchor:middle;fill:#ffffff;stroke-width:0.26458332px"
           id="path4707"
           inkscape:connector-curvature="0" />
        <path
           d="m 97.366337,118.92471 q -0.05161,0 -0.09357,0.0198 -0.04196,0.0193 -0.07187,0.0559 -0.02942,0.0367 -0.04582,0.0892 -0.01592,0.0526 -0.01592,0.11865 0,0.068 0.01399,0.12106 0.01447,0.0526 0.04293,0.0888 0.02846,0.0362 0.0709,0.055 0.04244,0.0188 0.09936,0.0188 0.04293,0 0.08151,-0.008 0.03859,-0.009 0.07621,-0.0198 v 0.0781 q -0.01881,0.007 -0.03762,0.013 -0.01881,0.005 -0.03955,0.009 -0.02026,0.003 -0.04389,0.005 -0.02315,0.002 -0.05161,0.002 -0.0791,0 -0.136977,-0.0261 -0.05788,-0.026 -0.09598,-0.0738 -0.03762,-0.0478 -0.05595,-0.11479 -0.01833,-0.067 -0.01833,-0.14855 0,-0.0801 0.02074,-0.14663 0.02122,-0.0666 0.06174,-0.1143 0.041,-0.0478 0.101285,-0.0743 0.06029,-0.0265 0.138424,-0.0265 0.05209,0 0.09936,0.0106 0.04727,0.0106 0.08537,0.0309 l -0.03762,0.0752 q -0.03039,-0.0154 -0.06608,-0.0265 -0.03569,-0.0111 -0.08103,-0.0111 z"
           style="font-style:normal;font-variant:normal;font-weight:normal;font-stretch:normal;font-size:0.98777777px;font-family:'Droid Sans';-inkscape-font-specification:'Droid Sans';text-align:center;text-anchor:middle;fill:#ffffff;stroke-width:0.26458332px"
           id="path4709"
           inkscape:connector-curvature="0" />
      </g>
      <g
         aria-label="RST"
         style="font-style:normal;font-variant:normal;font-weight:normal;font-stretch:normal;font-size:0.98777777px;line-height:125%;font-family:'Droid Sans';-inkscape-font-specification:'Droid Sans';text-align:center;letter-spacing:0px;word-spacing:0px;writing-mode:lr-tb;text-anchor:middle;fill:#ffffff;fill-opacity:1;stroke:none;stroke-width:0.26458332px;stroke-linecap:butt;stroke-linejoin:miter;stroke-opacity:1"
         id="text4650">
        <path
           d="m 91.255597,119.27053 v 0.29132 h -0.08971 v -0.70514 h 0.171703 q 0.128295,0 0.189549,0.0497 0.06125,0.0497 0.06125,0.15048 0,0.042 -0.01206,0.0733 -0.01157,0.0314 -0.03135,0.054 -0.01929,0.0222 -0.04437,0.0371 -0.02508,0.0149 -0.05161,0.0246 l 0.19196,0.31591 h -0.105626 l -0.169292,-0.29132 z m 0,-0.0762 h 0.0791 q 0.04341,0 0.07379,-0.008 0.03039,-0.009 0.04968,-0.0251 0.01977,-0.0169 0.02846,-0.0415 0.0092,-0.0251 0.0092,-0.0584 0,-0.0347 -0.01013,-0.0588 -0.0096,-0.0241 -0.0299,-0.0396 -0.01978,-0.0154 -0.05064,-0.0222 -0.03039,-0.007 -0.07235,-0.007 h -0.07717 z"
           style="font-style:normal;font-variant:normal;font-weight:normal;font-stretch:normal;font-size:0.98777777px;font-family:'Droid Sans';-inkscape-font-specification:'Droid Sans';text-align:center;text-anchor:middle;fill:#ffffff;stroke-width:0.26458332px"
           id="path4712"
           inkscape:connector-curvature="0" />
        <path
           d="m 92.119902,119.37327 q 0,0.0468 -0.01688,0.0839 -0.0164,0.0367 -0.04727,0.0622 -0.03087,0.0256 -0.07524,0.0391 -0.04437,0.013 -0.09984,0.013 -0.05354,0 -0.100321,-0.009 -0.0463,-0.008 -0.07765,-0.0246 v -0.0858 q 0.0164,0.008 0.03714,0.0154 0.02122,0.007 0.04437,0.013 0.02315,0.006 0.04775,0.01 0.0246,0.003 0.04871,0.003 0.07717,0 0.113826,-0.0289 0.03714,-0.0289 0.03714,-0.083 0,-0.026 -0.0072,-0.0453 -0.0068,-0.0193 -0.0246,-0.0352 -0.01736,-0.0164 -0.04678,-0.0314 -0.02942,-0.0154 -0.07428,-0.0333 -0.04293,-0.0169 -0.07476,-0.0367 -0.03135,-0.0203 -0.05209,-0.0453 -0.02026,-0.0251 -0.03038,-0.0569 -0.0096,-0.0318 -0.0096,-0.0724 0,-0.0424 0.01543,-0.0757 0.01543,-0.0333 0.04341,-0.0559 0.02797,-0.0232 0.06656,-0.0352 0.03907,-0.0121 0.08585,-0.0121 0.05739,0 0.103215,0.0111 0.04582,0.0106 0.08151,0.0275 l -0.03231,0.0752 q -0.03135,-0.014 -0.07138,-0.0241 -0.03955,-0.0106 -0.08199,-0.0106 -0.05884,0 -0.09116,0.0275 -0.03231,0.027 -0.03231,0.0733 0,0.0275 0.0072,0.0477 0.0072,0.0198 0.02412,0.0362 0.01688,0.0159 0.04437,0.0304 0.02797,0.014 0.06849,0.0299 0.04389,0.0174 0.07669,0.0357 0.03328,0.0183 0.05547,0.0415 0.02219,0.0231 0.03328,0.0535 0.01157,0.0304 0.01157,0.0719 z"
           style="font-style:normal;font-variant:normal;font-weight:normal;font-stretch:normal;font-size:0.98777777px;font-family:'Droid Sans';-inkscape-font-specification:'Droid Sans';text-align:center;text-anchor:middle;fill:#ffffff;stroke-width:0.26458332px"
           id="path4714"
           inkscape:connector-curvature="0" />
        <path
           d="m 92.467168,119.56185 h -0.09019 v -0.62604 h -0.201607 v -0.0791 h 0.492925 v 0.0791 h -0.201125 z"
           style="font-style:normal;font-variant:normal;font-weight:normal;font-stretch:normal;font-size:0.98777777px;font-family:'Droid Sans';-inkscape-font-specification:'Droid Sans';text-align:center;text-anchor:middle;fill:#ffffff;stroke-width:0.26458332px"
           id="path4716"
           inkscape:connector-curvature="0" />
      </g>
      <g
         aria-label="GND"
         style="font-style:normal;font-variant:normal;font-weight:normal;font-stretch:normal;font-size:0.98777777px;line-height:125%;font-family:'Droid Sans';-inkscape-font-specification:'Droid Sans, Normal';text-align:center;letter-spacing:0px;word-spacing:0px;writing-mode:lr-tb;text-anchor:middle;fill:#ffffff;fill-opacity:1;stroke:none;stroke-width:0.26458332px;stroke-linecap:butt;stroke-linejoin:miter;stroke-opacity:1"
         id="text4654">
        <path
           d="m 88.753118,119.18951 h 0.233439 v 0.34581 q -0.02653,0.009 -0.05354,0.0154 -0.02701,0.007 -0.05547,0.0111 -0.02846,0.005 -0.05981,0.007 -0.03135,0.002 -0.06752,0.002 -0.07572,0 -0.134083,-0.0251 -0.05836,-0.0256 -0.09839,-0.0724 -0.04003,-0.0473 -0.06077,-0.11431 -0.02074,-0.0675 -0.02074,-0.15144 0,-0.083 0.02267,-0.15 0.02315,-0.067 0.06704,-0.11383 0.04389,-0.0473 0.108038,-0.0724 0.06463,-0.0256 0.147106,-0.0256 0.05354,0 0.102733,0.0106 0.0492,0.0106 0.09164,0.0309 l -0.03473,0.0781 q -0.01736,-0.008 -0.03762,-0.0154 -0.01977,-0.007 -0.041,-0.0125 -0.02122,-0.006 -0.04389,-0.009 -0.02219,-0.003 -0.04437,-0.003 -0.05884,0 -0.104179,0.0198 -0.04534,0.0193 -0.07621,0.0559 -0.03039,0.0367 -0.0463,0.0892 -0.01592,0.0526 -0.01592,0.11865 0,0.0627 0.01302,0.11479 0.01351,0.0521 0.04244,0.0897 0.02894,0.0376 0.07476,0.0584 0.04582,0.0207 0.11045,0.0207 0.02122,0 0.03858,-9.6e-4 0.01785,-10e-4 0.0328,-0.003 0.01495,-0.002 0.02797,-0.004 0.0135,-0.003 0.02604,-0.005 v -0.21029 h -0.144211 z"
           style="font-size:0.98777777px;text-align:center;text-anchor:middle;fill:#ffffff;stroke-width:0.26458332px"
           id="path4719"
           inkscape:connector-curvature="0" />
        <path
           d="m 89.681089,119.56185 h -0.103698 l -0.346783,-0.5836 h -0.0039 q 0.0029,0.0371 0.0048,0.0738 0.0019,0.0314 0.0029,0.0656 0.0014,0.0343 0.0014,0.0617 v 0.38247 h -0.08296 v -0.70514 h 0.102733 l 0.345337,0.5807 h 0.0034 q -0.0014,-0.0366 -0.0034,-0.0723 -4.83e-4,-0.0154 -0.0014,-0.0314 -4.83e-4,-0.0164 -0.0014,-0.0323 -4.83e-4,-0.0164 -9.65e-4,-0.0314 0,-0.0149 0,-0.0275 v -0.38585 h 0.08392 z"
           style="font-size:0.98777777px;text-align:center;text-anchor:middle;fill:#ffffff;stroke-width:0.26458332px"
           id="path4721"
           inkscape:connector-curvature="0" />
        <path
           d="m 90.392019,119.20253 q 0,0.0892 -0.02315,0.15675 -0.02315,0.067 -0.06704,0.11238 -0.04389,0.0448 -0.108038,0.0675 -0.06367,0.0227 -0.144694,0.0227 H 89.87257 v -0.70514 h 0.196302 q 0.07379,0 0.1336,0.0222 0.05981,0.0222 0.101768,0.0661 0.04196,0.0434 0.06463,0.10804 0.02315,0.0646 0.02315,0.14952 z m -0.09502,0.003 q 0,-0.0704 -0.01592,-0.12154 -0.01592,-0.0516 -0.0463,-0.0849 -0.03039,-0.0333 -0.07476,-0.0492 -0.04437,-0.0164 -0.100804,-0.0164 h -0.09695 v 0.55128 h 0.07814 q 0.127331,0 0.191961,-0.0704 0.06463,-0.0704 0.06463,-0.20884 z"
           style="font-size:0.98777777px;text-align:center;text-anchor:middle;fill:#ffffff;stroke-width:0.26458332px"
           id="path4723"
           inkscape:connector-curvature="0" />
      </g>
      <g
         aria-label="INT"
         style="font-style:normal;font-variant:normal;font-weight:normal;font-stretch:normal;font-size:0.98777777px;line-height:125%;font-family:'Droid Sans';-inkscape-font-specification:'Droid Sans, Normal';text-align:center;letter-spacing:0px;word-spacing:0px;writing-mode:lr-tb;text-anchor:middle;fill:#ffffff;fill-opacity:1;stroke:none;stroke-width:0.26458332px;stroke-linecap:butt;stroke-linejoin:miter;stroke-opacity:1"
         id="text4658">
        <path
           d="m 93.96486,119.56088 h -0.255626 v -0.0492 l 0.08296,-0.0198 v -0.5672 l -0.08296,-0.0198 v -0.0492 h 0.255626 v 0.0492 l -0.08296,0.0198 v 0.5672 l 0.08296,0.0198 z"
           style="font-size:0.98777777px;text-align:center;text-anchor:middle;fill:#ffffff;stroke-width:0.26458332px"
           id="path4726"
           inkscape:connector-curvature="0" />
        <path
           d="m 94.629488,119.56088 h -0.103697 l -0.346784,-0.5836 h -0.0039 q 0.0029,0.0371 0.0048,0.0738 0.0019,0.0314 0.0029,0.0656 0.0014,0.0343 0.0014,0.0617 v 0.38247 h -0.08296 v -0.70514 h 0.102733 l 0.345336,0.58071 h 0.0034 q -0.0014,-0.0367 -0.0034,-0.0724 -4.82e-4,-0.0154 -0.0014,-0.0313 -4.82e-4,-0.0164 -0.0014,-0.0323 -4.82e-4,-0.0164 -9.64e-4,-0.0314 0,-0.0149 0,-0.0275 v -0.38585 h 0.08392 z"
           style="font-size:0.98777777px;text-align:center;text-anchor:middle;fill:#ffffff;stroke-width:0.26458332px"
           id="path4728"
           inkscape:connector-curvature="0" />
        <path
           d="m 95.026432,119.56088 h -0.09019 v -0.62604 h -0.201607 v -0.0791 h 0.492925 v 0.0791 h -0.201125 z"
           style="font-size:0.98777777px;text-align:center;text-anchor:middle;fill:#ffffff;stroke-width:0.26458332px"
           id="path4730"
           inkscape:connector-curvature="0" />
      </g>
      <g
         aria-label="5V"
         style="font-style:normal;font-variant:normal;font-weight:normal;font-stretch:normal;font-size:0.98777777px;line-height:125%;font-family:'Droid Sans';-inkscape-font-specification:'Droid Sans, Normal';text-align:center;letter-spacing:0px;word-spacing:0px;writing-mode:lr-tb;text-anchor:middle;fill:#ffffff;fill-opacity:1;stroke:none;stroke-width:0.26458332px;stroke-linecap:butt;stroke-linejoin:miter;stroke-opacity:1"
         id="text4662">
        <path
           d="m 86.513711,119.12825 q 0.04775,0 0.08875,0.0135 0.04148,0.013 0.07186,0.0391 0.03087,0.026 0.04823,0.0646 0.01736,0.0386 0.01736,0.0892 0,0.055 -0.0164,0.0989 -0.0164,0.0439 -0.04871,0.0743 -0.03231,0.0304 -0.08006,0.0468 -0.04727,0.0159 -0.109003,0.0159 -0.0246,0 -0.04871,-0.002 -0.02363,-0.002 -0.04582,-0.007 -0.0217,-0.004 -0.04148,-0.0116 -0.01977,-0.007 -0.03569,-0.0169 v -0.083 q 0.01592,0.0111 0.03714,0.0198 0.0217,0.009 0.04534,0.0145 0.02363,0.006 0.04727,0.009 0.02412,0.003 0.04437,0.003 0.0381,0 0.06801,-0.009 0.0299,-0.009 0.05064,-0.028 0.02074,-0.0188 0.03183,-0.0473 0.01109,-0.0285 0.01109,-0.0675 0,-0.069 -0.04244,-0.10514 -0.04244,-0.0367 -0.123473,-0.0367 -0.01302,0 -0.02846,0.001 -0.01495,9.7e-4 -0.03039,0.003 -0.01495,0.002 -0.02894,0.004 -0.0135,0.002 -0.02363,0.004 l -0.04341,-0.0275 0.02653,-0.33183 h 0.332796 v 0.0801 h -0.25659 l -0.01881,0.20209 q 0.01543,-0.003 0.04051,-0.006 0.02556,-0.003 0.06029,-0.003 z"
           style="font-size:0.98777777px;text-align:center;text-anchor:middle;fill:#ffffff;stroke-width:0.26458332px"
           id="path4733"
           inkscape:connector-curvature="0" />
        <path
           d="m 87.260332,118.85574 h 0.0955 l -0.235851,0.70514 h -0.09019 L 86.7949,118.85574 h 0.09502 l 0.142283,0.4471 q 0.01399,0.0439 0.02412,0.0849 0.01013,0.0405 0.01833,0.0762 0.0072,-0.0357 0.01833,-0.0762 0.01109,-0.041 0.02605,-0.0878 z"
           style="font-size:0.98777777px;text-align:center;text-anchor:middle;fill:#ffffff;stroke-width:0.26458332px"
           id="path4735"
           inkscape:connector-curvature="0" />
      </g>
    </g>
    <g
       aria-label="W5500"
       transform="rotate(-90)"
       style="font-style:normal;font-variant:normal;font-weight:normal;font-stretch:normal;font-size:3.52777767px;line-height:125%;font-family:OCRA;-inkscape-font-specification:OCRA;text-align:start;letter-spacing:0px;word-spacing:0px;writing-mode:lr-tb;text-anchor:start;fill:#ffffff;fill-opacity:1;stroke:none;stroke-width:0.26458332px;stroke-linecap:butt;stroke-linejoin:miter;stroke-opacity:1"
       id="text4740">
      <path
         d="m -167.85322,68.309043 h 0.33934 l 0.39446,1.474501 q 0.0258,0.09646 0.05,0.192925 0.0258,0.09646 0.0465,0.187758 0.0224,0.08957 0.0379,0.170532 0.0172,0.08096 0.0276,0.146417 0.007,-0.06546 0.0172,-0.142972 0.0103,-0.07751 0.0241,-0.161919 0.0138,-0.08613 0.0293,-0.173978 0.0172,-0.08957 0.0362,-0.173977 l 0.34451,-1.519287 h 0.34279 l -0.63218,2.518365 h -0.32384 l -0.43753,-1.61575 q -0.0241,-0.08785 -0.0465,-0.180867 -0.0224,-0.09302 -0.0413,-0.173978 -0.0207,-0.09474 -0.0396,-0.184312 -0.0189,0.08785 -0.0379,0.18259 -0.0172,0.08096 -0.0396,0.177422 -0.0207,0.09646 -0.0448,0.18948 l -0.41685,1.605415 h -0.32384 l -0.6649,-2.518365 h 0.33934 l 0.38413,1.531345 q 0.0207,0.07924 0.0379,0.165365 0.0172,0.0844 0.031,0.168809 0.0155,0.08441 0.0276,0.163642 0.0121,0.07751 0.0207,0.142972 0.009,-0.06374 0.0207,-0.148139 0.0138,-0.08441 0.031,-0.177423 0.0172,-0.09302 0.0362,-0.187757 0.0207,-0.09646 0.0431,-0.180868 z"
         style="font-style:normal;font-variant:normal;font-weight:normal;font-stretch:normal;font-size:3.52777767px;font-family:'Droid Sans';-inkscape-font-specification:'Droid Sans';fill:#ffffff;stroke-width:0.26458332px"
         id="path872"
         inkscape:connector-curvature="0" />
      <path
         d="m -165.18672,69.282283 q 0.17053,0 0.31695,0.04823 0.14814,0.04651 0.25666,0.139526 0.11024,0.09302 0.17225,0.230822 0.062,0.137803 0.062,0.318671 0,0.19637 -0.0586,0.353122 -0.0586,0.156752 -0.17398,0.265273 -0.11541,0.10852 -0.28594,0.167087 -0.16881,0.05684 -0.3893,0.05684 -0.0879,0 -0.17398,-0.0086 -0.0844,-0.0086 -0.16364,-0.02584 -0.0775,-0.0155 -0.14814,-0.04134 -0.0706,-0.02584 -0.12747,-0.06029 v -0.296279 q 0.0568,0.03962 0.13264,0.07062 0.0775,0.03101 0.16192,0.05168 0.0844,0.02067 0.16881,0.03273 0.0861,0.01033 0.15847,0.01033 0.13609,0 0.24288,-0.03101 0.1068,-0.03273 0.18087,-0.09991 0.0741,-0.06718 0.11369,-0.168809 0.0396,-0.101631 0.0396,-0.241157 0,-0.246324 -0.15159,-0.375515 -0.15158,-0.130914 -0.44097,-0.130914 -0.0465,0 -0.10163,0.0052 -0.0534,0.0034 -0.10852,0.01033 -0.0534,0.0069 -0.10335,0.0155 -0.0482,0.0069 -0.0844,0.01378 l -0.15503,-0.09819 0.0947,-1.185113 h 1.18856 V 68.595 h -0.91639 l -0.0672,0.721748 q 0.0551,-0.01034 0.14469,-0.02239 0.0913,-0.01206 0.21532,-0.01206 z"
         style="font-style:normal;font-variant:normal;font-weight:normal;font-stretch:normal;font-size:3.52777767px;font-family:'Droid Sans';-inkscape-font-specification:'Droid Sans';fill:#ffffff;stroke-width:0.26458332px"
         id="path874"
         inkscape:connector-curvature="0" />
      <path
         d="m -163.24369,69.282283 q 0.17054,0 0.31695,0.04823 0.14814,0.04651 0.25666,0.139526 0.11024,0.09302 0.17226,0.230822 0.062,0.137803 0.062,0.318671 0,0.19637 -0.0586,0.353122 -0.0586,0.156752 -0.17398,0.265273 -0.11541,0.10852 -0.28594,0.167087 -0.16881,0.05684 -0.38929,0.05684 -0.0879,0 -0.17398,-0.0086 -0.0844,-0.0086 -0.16364,-0.02584 -0.0775,-0.0155 -0.14814,-0.04134 -0.0706,-0.02584 -0.12747,-0.06029 v -0.296279 q 0.0568,0.03962 0.13263,0.07062 0.0775,0.03101 0.16192,0.05168 0.0844,0.02067 0.16881,0.03273 0.0861,0.01033 0.15848,0.01033 0.13608,0 0.24288,-0.03101 0.1068,-0.03273 0.18087,-0.09991 0.0741,-0.06718 0.11368,-0.168809 0.0396,-0.101631 0.0396,-0.241157 0,-0.246324 -0.15158,-0.375515 -0.15159,-0.130914 -0.44097,-0.130914 -0.0465,0 -0.10163,0.0052 -0.0534,0.0034 -0.10853,0.01033 -0.0534,0.0069 -0.10335,0.0155 -0.0482,0.0069 -0.0844,0.01378 l -0.15503,-0.09819 0.0947,-1.185113 h 1.18856 V 68.595 h -0.9164 l -0.0672,0.721748 q 0.0551,-0.01034 0.14469,-0.02239 0.0913,-0.01206 0.21532,-0.01206 z"
         style="font-style:normal;font-variant:normal;font-weight:normal;font-stretch:normal;font-size:3.52777767px;font-family:'Droid Sans';-inkscape-font-specification:'Droid Sans';fill:#ffffff;stroke-width:0.26458332px"
         id="path876"
         inkscape:connector-curvature="0" />
      <path
         d="m -160.46177,69.56478 q 0,0.304891 -0.0448,0.546048 -0.0431,0.241157 -0.14125,0.408244 -0.0965,0.167087 -0.24977,0.254937 -0.1533,0.08785 -0.37207,0.08785 -0.20326,0 -0.35484,-0.08785 -0.14986,-0.08785 -0.24977,-0.254937 -0.0982,-0.167087 -0.14814,-0.408244 -0.0482,-0.241157 -0.0482,-0.546048 0,-0.304891 0.0431,-0.546047 0.0448,-0.241157 0.13953,-0.406521 0.0965,-0.167088 0.24805,-0.254938 0.1533,-0.08785 0.37034,-0.08785 0.20499,0 0.35657,0.08785 0.15159,0.08613 0.25149,0.253215 0.0999,0.165365 0.14986,0.406521 0.05,0.241157 0.05,0.54777 z m -1.29019,0 q 0,0.258383 0.0258,0.451308 0.0258,0.192925 0.0827,0.322116 0.0568,0.127469 0.14814,0.192926 0.093,0.06373 0.22565,0.06373 0.13264,0 0.22566,-0.06373 0.093,-0.06374 0.15158,-0.191203 0.0603,-0.127469 0.0861,-0.320394 0.0276,-0.194648 0.0276,-0.454753 0,-0.258382 -0.0276,-0.451307 -0.0258,-0.192925 -0.0861,-0.320394 -0.0586,-0.127469 -0.15158,-0.191203 -0.093,-0.06373 -0.22566,-0.06373 -0.13263,0 -0.22565,0.06373 -0.0913,0.06373 -0.14814,0.191203 -0.0568,0.127469 -0.0827,0.320394 -0.0258,0.192925 -0.0258,0.451307 z"
         style="font-style:normal;font-variant:normal;font-weight:normal;font-stretch:normal;font-size:3.52777767px;font-family:'Droid Sans';-inkscape-font-specification:'Droid Sans';fill:#ffffff;stroke-width:0.26458332px"
         id="path878"
         inkscape:connector-curvature="0" />
      <path
         d="m -158.51874,69.56478 q 0,0.304891 -0.0448,0.546048 -0.0431,0.241157 -0.14125,0.408244 -0.0965,0.167087 -0.24977,0.254937 -0.15331,0.08785 -0.37207,0.08785 -0.20326,0 -0.35485,-0.08785 -0.14986,-0.08785 -0.24977,-0.254937 -0.0982,-0.167087 -0.14814,-0.408244 -0.0482,-0.241157 -0.0482,-0.546048 0,-0.304891 0.0431,-0.546047 0.0448,-0.241157 0.13952,-0.406521 0.0965,-0.167088 0.24805,-0.254938 0.15331,-0.08785 0.37035,-0.08785 0.20498,0 0.35656,0.08785 0.15159,0.08613 0.2515,0.253215 0.0999,0.165365 0.14986,0.406521 0.0499,0.241157 0.0499,0.54777 z m -1.29019,0 q 0,0.258383 0.0258,0.451308 0.0258,0.192925 0.0827,0.322116 0.0568,0.127469 0.14814,0.192926 0.093,0.06373 0.22566,0.06373 0.13263,0 0.22565,-0.06373 0.093,-0.06374 0.15158,-0.191203 0.0603,-0.127469 0.0861,-0.320394 0.0276,-0.194648 0.0276,-0.454753 0,-0.258382 -0.0276,-0.451307 -0.0258,-0.192925 -0.0861,-0.320394 -0.0586,-0.127469 -0.15158,-0.191203 -0.093,-0.06373 -0.22565,-0.06373 -0.13264,0 -0.22566,0.06373 -0.0913,0.06373 -0.14814,0.191203 -0.0568,0.127469 -0.0827,0.320394 -0.0258,0.192925 -0.0258,0.451307 z"
         style="font-style:normal;font-variant:normal;font-weight:normal;font-stretch:normal;font-size:3.52777767px;font-family:'Droid Sans';-inkscape-font-specification:'Droid Sans';fill:#ffffff;stroke-width:0.26458332px"
         id="path880"
         inkscape:connector-curvature="0" />
    </g>
  </g>
</svg>
